<?xml version="1.0" encoding="UTF-8" standalone="no"?>
<!-- Created with Inkscape (http://www.inkscape.org/) -->

<svg
   xmlns:dc="http://purl.org/dc/elements/1.1/"
   xmlns:cc="http://creativecommons.org/ns#"
   xmlns:rdf="http://www.w3.org/1999/02/22-rdf-syntax-ns#"
   xmlns:svg="http://www.w3.org/2000/svg"
   xmlns="http://www.w3.org/2000/svg"
   xmlns:sodipodi="http://sodipodi.sourceforge.net/DTD/sodipodi-0.dtd"
   xmlns:inkscape="http://www.inkscape.org/namespaces/inkscape"
   width="737.14288"
   height="614.28571"
   id="svg2"
   version="1.1"
   inkscape:version="0.48.4 r9939"
   sodipodi:docname="house.svg">
  <defs
     id="defs4" />
  <sodipodi:namedview
     id="base"
     pagecolor="#ffffff"
     bordercolor="#666666"
     borderopacity="1.0"
     inkscape:pageopacity="0.0"
     inkscape:pageshadow="2"
     inkscape:zoom="0.35"
     inkscape:cx="-105"
     inkscape:cy="85.714277"
     inkscape:document-units="px"
     inkscape:current-layer="layer1"
     showgrid="false"
     inkscape:window-width="1366"
     inkscape:window-height="746"
     inkscape:window-x="-8"
     inkscape:window-y="-8"
     inkscape:window-maximized="1"
     inkscape:snap-page="false"
     inkscape:snap-center="false"
     inkscape:snap-object-midpoints="false"
     inkscape:snap-global="true"
     inkscape:snap-grids="false"
     inkscape:snap-to-guides="false"
     inkscape:snap-bbox="false"
     fit-margin-top="0"
     fit-margin-left="0"
     fit-margin-right="0"
     fit-margin-bottom="0">
    <sodipodi:guide
       position="-5.7142859,-434.28572"
       orientation="0,744.09448"
       id="guide3000" />
    <sodipodi:guide
       position="738.38019,2.857137"
       orientation="-1052.3622,0"
       id="guide3002" />
    <sodipodi:guide
       position="738.38019,618.07648"
       orientation="0,-744.09448"
       id="guide3004" />
    <sodipodi:guide
       position="-2.857143,-2.857153"
       orientation="1052.3622,0"
       id="guide3006" />
    <sodipodi:guide
       position="-5.7142859,-434.28572"
       orientation="0,744.09448"
       id="guide3008" />
    <sodipodi:guide
       position="738.38019,-434.28572"
       orientation="-1052.3622,0"
       id="guide3010" />
    <sodipodi:guide
       position="738.38019,618.07648"
       orientation="0,-744.09448"
       id="guide3012" />
    <sodipodi:guide
       position="-5.7142859,618.07648"
       orientation="1052.3622,0"
       id="guide3014" />
    <sodipodi:guide
       position="-5.7142859,-434.28572"
       orientation="0,744.09448"
       id="guide3016" />
    <sodipodi:guide
       position="738.38019,-434.28572"
       orientation="-1052.3622,0"
       id="guide3018" />
    <sodipodi:guide
       position="738.38019,618.07648"
       orientation="0,-744.09448"
       id="guide3020" />
    <sodipodi:guide
       position="-5.7142859,618.07648"
       orientation="1052.3622,0"
       id="guide3022" />
  </sodipodi:namedview>
  <metadata
     id="metadata7">
    <rdf:RDF>
      <cc:Work
         rdf:about="">
        <dc:format>image/svg+xml</dc:format>
        <dc:type
           rdf:resource="http://purl.org/dc/dcmitype/StillImage" />
        <dc:title />
      </cc:Work>
    </rdf:RDF>
  </metadata>
  <g
     inkscape:label="Layer 1"
     inkscape:groupmode="layer"
     id="layer1"
     transform="translate(-5.7142859,-3.7907541)">
    <rect
       style="fill:#00ffff"
       id="rect2987"
       width="747.92548"
       height="605.73285"
       x="-1.5849391"
       y="3.7814941" />
    <path
       style="fill:none;stroke:#000000;stroke-width:0.67626095px;stroke-linecap:butt;stroke-linejoin:miter;stroke-opacity:1"
       d="m -3.4832543,424.64788 c 20.8811803,0 41.7623603,0 62.6434853,0 4.429348,0 8.858679,0 13.288024,0 1.89829,0 3.822416,0.3233 5.694862,0 2.573456,-0.44437 5.019711,-1.52232 7.59316,-1.96668 2.534287,-0.4376 16.217913,0 17.084583,0 8.22593,0 16.45183,0 24.67775,0 8.2259,0 16.45182,0 24.67775,0 3.14335,0 10.71663,-0.444 13.28801,0 3.94748,0.68161 7.46549,3.12022 11.38971,3.93333 3.00523,0.62269 8.54799,-0.73601 11.38974,0 15.57124,4.03302 -14.9847,0.0299 11.38972,3.93333 1.87922,0.27813 3.83344,-0.38569 5.69487,0 2.77485,0.57496 4.8183,3.35837 7.59315,3.93334 2.00457,0.41536 10.54272,0 13.28802,0 0.63275,0 1.28441,-0.159 1.89827,0 16.06218,5.5469 -2.10365,-0.0355 9.49145,1.96667 12.31054,2.12565 3.98896,1.96666 9.49145,1.96666 4.42933,0 8.85867,0 13.28801,0 0.63277,0 1.45086,0.46355 1.89829,0 0.44743,-0.46355 -0.44743,-1.50313 0,-1.96666 0.44743,-0.46355 1.27781,0.12857 1.89828,0 2.5583,-0.5301 5.03487,-1.43658 7.59316,-1.96667 1.24095,-0.25713 2.53105,0 3.79657,0 0.47945,0 8.11738,0 9.49145,0 9.49143,0 18.98287,0 28.47431,0 3.16382,0 6.32763,0 9.49144,0 1.26553,0 2.53106,0 3.79658,0 0.63277,0 1.33232,0.29316 1.89828,0 0.80039,-0.41461 1.0979,-1.55207 1.89829,-1.96668 1.13193,-0.58633 2.596,0.41461 3.79658,0 1.3423,-0.46353 2.45428,-1.50311 3.79657,-1.96666 1.80088,-0.6219 3.85326,0.47699 5.69487,0 1.37265,-0.35552 2.42392,-1.61114 3.79658,-1.96666 1.67469,-0.43377 5.96696,0.56158 7.59315,0 1.34228,-0.46356 2.45428,-1.50311 3.79657,-1.96667 1.20059,-0.41461 2.66466,0.58635 3.79657,0 8.68774,-4.50033 -8.05522,0.81513 5.69487,-3.93333 0.60029,-0.2073 1.45086,0.46354 1.89829,0 1.00048,-1.03652 0.89781,-2.8968 1.89828,-3.93334 0.89487,-0.92708 2.66467,0.58636 3.79658,0 0.80039,-0.41461 1.0979,-1.55204 1.8983,-1.96666 0.93091,-0.48221 6.02693,0.32455 7.59314,0 15.3557,-3.18176 0.51344,-1.28638 13.28801,-3.93332 3.65056,-0.75641 7.73918,0.7564 11.38973,0 1.96212,-0.40656 3.75365,-1.46388 5.69486,-1.96666 2.37432,-0.61496 5.26909,0.80259 7.59316,0 0.84894,-0.29318 1.04936,-1.67349 1.89828,-1.96667 1.52845,-0.52784 10.29982,0.56457 11.38973,0 0.8004,-0.41461 1.26553,-1.3111 1.89829,-1.96666 1.26553,0 2.66466,0.58634 3.79658,0 0.56596,-0.29318 -0.56595,-1.67351 0,-1.96668 1.13193,-0.58633 2.66465,0.58635 3.79658,0 0.56596,-0.29317 -0.44743,-1.50311 0,-1.96666 0.44743,-0.46355 1.26552,0 1.89828,0 1.89829,0 3.85327,0.47699 5.69486,0 4.13545,0.73508 0.63277,-3.27777 1.89829,-3.93333 1.19312,-0.61804 6.40004,0.61805 7.59315,0 0.8004,-0.41461 1.0979,-1.55205 1.89829,-1.96666 1.51864,-0.78667 4.17624,0.78667 5.69488,0 0.80037,-0.41462 1.09789,-1.55205 1.89828,-1.96666 1.19312,-0.61806 6.40003,0.61804 7.59315,0 0.80038,-0.41462 1.0979,-1.55206 1.89828,-1.96667 0.56596,-0.29317 1.33234,0.29316 1.8983,0 0.80037,-0.4146 1.09789,-1.55207 1.89829,-1.96667 1.13191,-0.58634 2.59598,0.4146 3.79657,0 1.34228,-0.46354 2.6193,-1.15355 3.79656,-1.96667 0.74459,-0.51425 1.02082,-1.78485 1.89829,-1.96666 1.97167,-0.40853 13.73922,0 17.08461,0 1.89829,0 3.89398,0.62191 5.69485,0 0.84895,-0.29317 1.02081,-1.78485 1.89829,-1.96667 2.48191,-0.51427 5.06211,0 7.59316,0 4.42933,0 8.85868,0 13.28801,0 7.59315,0 15.1863,0 22.77946,0 3.16381,0 6.32761,0 9.49143,0 0.63276,0 1.298,-0.20731 1.89828,0 1.3423,0.46356 2.45429,1.50312 3.79659,1.96667 0.60028,0.20731 1.29798,-0.20729 1.89828,0 1.34229,0.46356 2.42392,1.61114 3.79657,1.96666 1.69477,0.43895 7.29413,0 9.49144,0 0.63277,0 1.26554,0 1.89829,0 0.63276,0 1.33233,-0.29318 1.89829,0 0.8004,0.41462 1.04935,1.67348 1.89829,1.96667 1.20058,0.4146 2.53106,0 3.79658,0 1.26552,0.65554 2.45429,1.50312 3.79657,1.96667 2.01715,0.6966 5.57601,-0.6966 7.59314,0 1.34231,0.46354 2.4543,1.50311 3.79659,1.96667 0.60029,0.20729 1.29799,-0.20731 1.89829,0 1.34229,0.46353 2.45428,1.5031 3.79657,1.96666 5.80782,2.00566 -4.73739,-6.5498 7.59316,1.96666 0.52648,0.36364 -0.44744,1.50311 0,1.96666 0.89486,0.92711 2.66464,-0.58634 3.79657,0 0.8004,0.41462 1.0979,1.55206 1.89829,1.96667 0.56596,0.29318 1.26552,0 1.89828,0 0.63277,0.65555 1.09791,1.55205 1.89828,1.96666 0.56597,0.29317 1.26554,0 1.89831,0 0.63276,0 1.26552,0 1.89828,0 2.53105,0 5.0621,0 7.59314,0 1.89829,0 3.79659,0 5.69488,0 0.63277,0 1.33232,-0.29317 1.89826,0 0.8004,0.41462 1.09792,1.55207 1.89833,1.96668 1.12004,0.58018 4.38916,-0.45091 5.69484,0 1.34229,0.46353 2.45429,1.50311 3.79659,1.96666 1.68459,0.58176 8.2484,-0.64391 9.49142,0 0.80041,0.41461 1.09793,1.55206 1.89834,1.96667 0.49909,0.25855 6.60048,0 7.59309,0 5.69492,0 11.38976,0 17.08461,0 7.59317,0 15.1863,0 22.77943,0 3.79657,0 7.59321,0 11.38977,0 0.63281,0 1.89828,-0.65555 1.89828,0 0,0.65555 -2.53109,0 -1.89828,0 1.26548,0 2.53102,0 3.79657,0"
       id="path2991"
       inkscape:connector-curvature="0" />
    <path
       style="fill:#00ff00"
       d="m -0.73071429,517.90857 0,-91.21251 81.42984029,-1.45468 c 59.985324,-1.0716 84.106174,-0.84573 91.592384,0.85766 5.58939,1.2718 13.80526,3.14706 18.25749,4.16725 4.45224,1.02021 10.16787,1.85491 12.7014,1.85491 2.53355,0 5.05476,0.75149 5.60268,1.66997 1.27154,2.13152 28.95549,5.04709 43.83761,4.61684 70.73729,-2.04509 102.80077,-6.09637 117.59533,-14.85839 7.52387,-4.45596 15.30851,-6.22269 52.67531,-11.95467 10.1242,-1.55302 20.10523,-3.76494 22.18009,-4.91537 2.07487,-1.15042 5.5371,-2.0917 7.69385,-2.0917 2.15676,0 3.92137,-0.74416 3.92137,-1.6537 0,-0.90955 4.91182,-2.74907 10.91517,-4.08784 12.88422,-2.8732 23.35528,-6.2454 26.35784,-8.4885 3.66913,-2.74109 75.50285,-4.34115 86.60183,-1.92902 5.47495,1.18987 15.07984,3.13098 21.34419,4.31359 14.95991,2.82418 28.23855,6.34725 29.42345,7.80658 2.2927,2.82365 12.14574,6.00559 18.59763,6.0059 3.8661,1.7e-4 13.7247,1.32769 21.90799,2.94999 9.21777,1.8274 26.00997,2.94967 44.13525,2.94967 l 29.25638,0 0,98.33325 0,98.33326 -373.01354,0 -373.01354429,0 0,-91.21249 z"
       id="path2993"
       inkscape:connector-curvature="0" />
    <path
       sodipodi:type="arc"
       style="fill:#ffff00"
       id="path2995"
       sodipodi:cx="194.28572"
       sodipodi:cy="220.93361"
       sodipodi:rx="97.14286"
       sodipodi:ry="100"
       d="m 291.42858,220.93361 c 0,55.22847 -43.49234,100 -97.14286,100 -53.65052,0 -97.14286,-44.77153 -97.14286,-100 0,-55.22848 43.49234,-100 97.14286,-100 53.65052,0 97.14286,44.77152 97.14286,100 z"
       transform="matrix(0.66440077,0,0,0.68833277,-5.3815343,-2.76109)" />
    <path
       style="fill:#ffff00"
       id="path3003"
       d="m 216.87254,78.02593 c 4.92427,-1.91924 9.44638,-4.73515 14.43277,-6.51724 0.79248,-0.20855 1.61088,-0.33085 2.37741,-0.62563 0.64767,-0.24909 1.20914,-0.69556 1.83666,-0.99497 2.31877,-1.10631 4.70557,-1.45403 7.22004,-1.68672 1.00227,-0.73968 2.2998,-0.60235 3.37327,-1.10922 0.5068,-0.23933 0.88319,-0.70857 1.36388,-1.00002 1.51307,-0.9174 3.1333,-1.23126 4.83086,-1.54499 3.6749,-0.46061 7.38646,-0.41341 11.08165,-0.41075 0.63199,0.003 1.27277,0.11605 1.89598,0.007 1.02923,-0.1797 1.94534,-0.80137 2.95729,-1.06625 1.6301,-0.42667 3.29364,-0.55557 4.96276,-0.69216 18.96015,-11.00934 -32.76002,18.93561 -49.08699,28.50099 -0.48086,0.28172 1.07759,-0.32247 1.53873,-0.6376 1.25137,-0.85514 2.47422,-2.43595 3.49057,-3.58009 1.11373,-1.69354 0.62397,-0.80229 1.46572,-2.67581 0,0 54.21455,-26.67076 54.21455,-26.67076 l 0,0 c -0.43756,2.75506 -0.16202,1.38965 -0.8267,4.09621 -0.57887,1.54843 -0.74448,2.29527 -1.69304,3.64763 -0.35626,0.5079 -0.87698,0.87964 -1.21658,1.39965 -0.40111,0.61416 -0.3707,1.59938 -0.98764,1.97538 -51.30898,31.26959 -32.99256,30.10407 -54.99072,31.18615 -3.38492,0.69382 -6.67091,1.50121 -10.15408,1.14708 -3.45253,0.17625 -6.95128,0.41406 -10.18794,1.79148 -3.20778,1.46784 -6.36966,2.78218 -9.90912,3.13764 -3.55645,1.15269 -6.93574,2.83302 -10.46862,4.04705 -4.83954,2.34762 -9.69537,4.67463 -14.46019,7.17531 0,0 46.93948,-38.8996 46.93948,-38.8996 z"
       inkscape:connector-curvature="0" />
    <path
       style="fill:#ffff00"
       id="path3005"
       d="m 209.11559,169.01207 c 5.39661,2.11654 10.90921,3.90418 16.38122,5.807 5.62144,1.96347 10.99696,4.50435 16.49878,6.77605 4.0721,1.84167 8.45681,2.73803 12.61446,4.2744 3.08746,0.88186 6.05823,2.06926 9.11763,3.03788 2.63821,1.17514 5.12048,2.69162 7.79242,3.77656 3.7285,1.92014 7.76158,3.15845 11.34536,5.36192 1.70413,0.99748 3.31396,2.13448 5.00556,3.1541 0,0 -12.57573,8.44029 -12.57573,8.44029 l 0,0 c -1.66612,-1.04028 -3.29262,-2.14358 -4.98326,-3.14123 -3.60558,-2.05258 -7.56262,-3.38086 -11.29601,-5.16519 -2.58791,-1.18698 -5.07712,-2.59362 -7.71495,-3.67084 -3.02983,-1.05603 -6.0608,-2.06649 -9.10424,-3.07822 -4.21743,-1.40397 -8.49187,-2.61241 -12.58639,-4.40471 -5.4353,-2.33991 -10.82959,-4.75123 -16.40901,-6.71587 -5.51812,-1.87649 -11.01901,-3.80337 -16.52854,-5.7058 0,0 12.4427,-8.74634 12.4427,-8.74634 z"
       inkscape:connector-curvature="0" />
    <path
       style="fill:#ffff00"
       id="path3007"
       d="m 177.85085,220.19573 c -0.1335,6.51368 -0.0868,13.02953 -0.0599,19.54409 0.0226,4.62854 0.0358,9.25709 0.0421,13.88567 0.45793,3.38791 1.17228,6.71812 1.53024,10.12439 0.82835,3.23203 1.53014,6.4639 1.90392,9.78837 0.34554,3.82621 0.3576,7.67317 0.3784,11.51267 0.009,3.28124 6.6e-4,6.56252 -0.004,9.84375 0,0 -13.35522,7.04744 -13.35522,7.04744 l 0,0 c 0.005,-3.27813 0.012,-6.5563 0.007,-9.83444 -0.0152,-3.78729 -0.0183,-7.58084 -0.32141,-11.35785 -0.34078,-3.33378 -1.00932,-6.57691 -1.90845,-9.79765 -0.33455,-3.46514 -1.02952,-6.85022 -1.5783,-10.28074 0.007,-4.64343 0.0196,-9.28681 0.0421,-13.93016 0.0267,-6.49348 0.0743,-12.98826 -0.0599,-19.48081 0,0 13.38323,-7.06473 13.38323,-7.06473 z"
       inkscape:connector-curvature="0" />
    <path
       style="fill:#ffff00"
       id="path3009"
       d="m 87.690198,237.12985 c -0.785186,0.29723 -1.580909,0.56614 -2.355572,0.89168 -1.873588,0.78737 -3.744525,1.58692 -5.571762,2.48365 -0.859845,0.42195 -3.341762,1.88577 -2.518076,1.3924 13.377548,-8.01325 13.329969,-8.03964 8.059814,-4.57047 -4.512293,3.40073 -8.234207,7.78238 -12.032036,11.98539 -3.53404,3.7342 -6.447826,7.97311 -9.129685,12.38193 -2.311242,3.31446 -4.801987,6.4487 -6.368164,10.22732 -1.37971,3.68884 -3.116651,7.22203 -5.259934,10.49531 -1.768962,2.95227 -3.751442,5.65137 -6.047015,8.18576 -0.435683,0.51627 -0.871362,1.03256 -1.307042,1.54885 0,0 -13.78505,6.06568 -13.78505,6.06568 l 0,0 c 0.42185,-0.54697 0.84377,-1.09393 1.26562,-1.64089 2.31326,-2.47438 4.50691,-4.95144 6.08877,-8.00103 2.37969,-2.99851 3.99525,-6.56259 5.44103,-10.12386 1.37055,-3.9678 3.692227,-7.30062 6.299155,-10.51445 2.70353,-4.46332 5.4862,-8.86302 9.033729,-12.6785 3.92002,-4.15947 7.546452,-8.66593 11.924785,-12.33219 8.879945,-6.01731 18.03533,-11.8347 28.157512,-15.2859 0,0 -11.896079,9.48932 -11.896079,9.48932 z"
       inkscape:connector-curvature="0" />
    <path
       style="fill:#ffff00"
       id="path3011"
       d="m 53.611604,178.82184 c -4.336859,3.22704 -8.478608,6.71363 -12.507678,10.33903 -3.07751,2.5059 -6.03904,5.04522 -8.6417,8.08167 -2.12893,2.36329 -4.25419,4.73375 -6.39302,7.0896 -2.62383,2.33301 -4.63675,5.23965 -6.68666,8.09372 -1.78285,2.44397 -3.75699,4.72204 -5.78672,6.94567 -0.32071,0.34396 -0.64135,0.68794 -0.96199,1.03192 0,0 -13.9156203,5.92327 -13.9156203,5.92327 l 0,0 c 0.33867001,-0.30095 0.67720001,-0.60188 1.01587001,-0.90282 1.87414999,-2.3464 4.07934999,-4.38785 5.87901999,-6.81172 1.95251,-2.94465 4.00156,-5.92497 6.5674903,-8.32971 2.2914,-2.17759 4.12446,-4.80445 6.45946,-6.94808 2.44289,-3.28874 5.44079,-5.88277 8.62969,-8.36728 4.05622,-3.53804 8.01413,-7.22774 12.38898,-10.34416 0,0 13.952878,-5.80111 13.952878,-5.80111 z"
       inkscape:connector-curvature="0" />
    <path
       style="fill:#ffff00"
       id="path3013"
       d="m 36.190876,131.60545 c -6.77792,-2.11237 -13.33866,-4.79775 -19.85321,-7.65054 -6.12632,-2.51941 -11.7150103,-6.16057 -17.6530703,-9.06595 -0.65579,-0.38627 -1.31151,-0.77252 -1.96723,-1.15878 0,0 12.53521,-8.45001 12.53521,-8.45001 l 0,0 c 0.629,0.36665 1.2580803,0.7333 1.8870803,1.09994 5.82285,3.03159 11.40097,6.56397 17.47177,9.08482 6.53491,2.80309 13.11711,5.47367 19.96664,7.35152 0,0 -12.38719,8.789 -12.38719,8.789 z"
       inkscape:connector-curvature="0" />
    <path
       style="fill:#ffff00"
       id="path3015"
       d="M 67.135944,84.88831 C 64.262274,79.35227 60.928511,74.08254 57.708484,68.75728 54.139443,63.10598 50.904267,57.252 47.53539,51.47735 45.323266,47.52873 43.470046,43.36894 41.660636,39.2086 c -1.9618,-3.10513 -3.14765,-6.5822 -4.3501,-10.04941 0,0 13.120238,-7.52584 13.120238,-7.52584 l 0,0 c 1.184185,3.43241 2.365124,6.86585 4.274505,9.95605 1.769609,4.11602 3.609078,8.21566 5.710348,12.16106 3.284905,5.82051 6.562122,11.62381 10.140523,17.26263 3.219237,5.3868 6.527332,10.71754 9.638597,16.17191 0,0 -13.058803,7.70331 -13.058803,7.70331 z"
       inkscape:connector-curvature="0" />
    <path
       style="fill:#ffff00"
       id="path3017"
       d="m 126.50185,68.60046 c -0.13394,-5.56602 0.19312,-11.06966 0.85841,-16.58797 0.57794,-4.28591 0.84568,-8.60249 0.98296,-12.92445 -0.071,-3.54281 0.89907,-6.96769 1.40236,-10.44618 0.46288,-3.69953 0.51391,-7.43515 0.56075,-11.15982 0.004,-0.65027 0.008,-1.30053 0.0133,-1.95079 0,0 13.35942,-7.04238 13.35942,-7.04238 l 0,0 c -0.002,0.6526 -0.005,1.30522 -0.008,1.95783 -0.0332,3.77866 -0.0657,7.56585 -0.45672,11.32698 -0.42973,3.45733 -1.44072,6.82415 -1.4989,10.30972 -0.12278,4.37579 -0.364,8.74936 -0.96889,13.08629 -0.70284,5.44286 -1.23045,10.86245 -0.86088,16.36604 0,0 -13.38323,7.06473 -13.38323,7.06473 z"
       inkscape:connector-curvature="0" />
    <rect
       style="fill:#ff0000"
       id="rect3023"
       width="184.13394"
       height="167.16653"
       x="457.80072"
       y="349.91467" />
    <path
       sodipodi:type="star"
       style="fill:#ff0000"
       id="path3035"
       sodipodi:sides="3"
       sodipodi:cx="794.28571"
       sodipodi:cy="355.21933"
       sodipodi:r1="155.96965"
       sodipodi:r2="77.984825"
       sodipodi:arg1="0.49642275"
       sodipodi:arg2="1.5436203"
       inkscape:flatsided="false"
       inkscape:rounded="0"
       inkscape:randomized="0"
       d="m 931.42857,429.50505 -135.02381,3.67031 -135.0238,3.67031 64.33332,-118.7692 64.33331,-118.7692 70.69049,115.09889 z"
       inkscape:transform-center-x="-1.4079201"
       inkscape:transform-center-y="-25.566645"
       transform="matrix(0.66440077,0,0,0.68833277,21.194496,54.2722)" />
    <rect
       style="fill:#784421"
       id="rect3041"
       width="39.864048"
       height="86.533264"
       x="569.79968"
       y="426.61444" />
    <rect
       style="fill:#784421"
       id="rect3043"
       width="55.050346"
       height="27.53331"
       x="484.37674"
       y="438.41443" />
    <rect
       style="fill:#784421"
       id="rect3045"
       width="7.5931516"
       height="47.199959"
       x="457.80072"
       y="302.71463" />
    <rect
       style="fill:#784421"
       id="rect3047"
       width="186.03221"
       height="1.9666651"
       x="459.69897"
       y="349.91467" />
  </g>
</svg>
