<?xml version="1.0" encoding="UTF-8" standalone="no"?>
<!-- Created with Inkscape (http://www.inkscape.org/) -->

<svg
   xmlns:dc="http://purl.org/dc/elements/1.1/"
   xmlns:cc="http://creativecommons.org/ns#"
   xmlns:rdf="http://www.w3.org/1999/02/22-rdf-syntax-ns#"
   xmlns:svg="http://www.w3.org/2000/svg"
   xmlns="http://www.w3.org/2000/svg"
   xmlns:sodipodi="http://sodipodi.sourceforge.net/DTD/sodipodi-0.dtd"
   xmlns:inkscape="http://www.inkscape.org/namespaces/inkscape"
   width="744.09448819"
   height="1052.3622047"
   id="svg2"
   version="1.1"
   inkscape:version="0.48.4 r9939"
   sodipodi:docname="New document 1">
  <defs
     id="defs4" />
  <sodipodi:namedview
     id="base"
     pagecolor="#ffffff"
     bordercolor="#666666"
     borderopacity="1.0"
     inkscape:pageopacity="0.0"
     inkscape:pageshadow="2"
     inkscape:zoom="0.35"
     inkscape:cx="375"
     inkscape:cy="520"
     inkscape:document-units="px"
     inkscape:current-layer="layer1"
     showgrid="false"
     inkscape:window-width="1366"
     inkscape:window-height="746"
     inkscape:window-x="-8"
     inkscape:window-y="-8"
     inkscape:window-maximized="1" />
  <metadata
     id="metadata7">
    <rdf:RDF>
      <cc:Work
         rdf:about="">
        <dc:format>image/svg+xml</dc:format>
        <dc:type
           rdf:resource="http://purl.org/dc/dcmitype/StillImage" />
        <dc:title></dc:title>
      </cc:Work>
    </rdf:RDF>
  </metadata>
  <g
     inkscape:label="Layer 1"
     inkscape:groupmode="layer"
     id="layer1">
    <rect
       style="fill:#00ffff"
       id="rect2987"
       width="1125.7142"
       height="880"
       x="5.7142859"
       y="9.5050402" />
    <path
       style="fill:none;stroke:#000000;stroke-width:1px;stroke-linecap:butt;stroke-linejoin:miter;stroke-opacity:1"
       d="m 2.8571429,620.93361 c 31.4285711,0 62.8571431,0 94.2857141,0 6.666663,0 13.333333,0 20.000003,0 2.85714,0 5.75316,0.46971 8.57143,0 3.87334,-0.64556 7.55523,-2.21159 11.42857,-2.85714 3.81441,-0.63574 24.40985,0 25.71428,0 12.38096,0 24.76191,0 37.14286,0 12.38095,0 24.7619,0 37.14286,0 4.7311,0 16.12978,-0.64504 20,0 5.94143,0.99024 11.23644,4.533 17.14285,5.71428 4.52322,0.90465 12.86572,-1.06928 17.14286,0 23.43652,5.85913 -22.5537,0.0434 17.14286,5.71429 2.82843,0.40406 5.76977,-0.56033 8.57143,0 4.17646,0.83529 7.2521,4.87899 11.42857,5.71429 3.01711,0.60342 15.86802,0 20,0 0.95238,0 1.9332,-0.23099 2.85714,0 24.17543,8.05847 -3.16624,-0.0515 14.28572,2.85714 18.52877,3.08813 6.00384,2.85714 14.28571,2.85714 6.66667,0 13.33333,0 20,0 0.95238,0 2.18371,0.67344 2.85714,0 0.67344,-0.67343 -0.67343,-2.18371 0,-2.85714 0.67344,-0.67344 1.92326,0.18678 2.85715,0 3.85051,-0.7701 7.57806,-2.08704 11.42857,-2.85714 1.86777,-0.37356 3.80952,0 5.71428,0 0.72162,0 12.21759,0 14.28572,0 14.28571,0 28.57143,0 42.85714,0 4.7619,0 9.52381,0 14.28571,0 1.90477,0 3.80953,0 5.71429,0 0.95238,0 2.00531,0.42591 2.85714,0 1.20468,-0.60234 1.65247,-2.25481 2.85715,-2.85715 1.70367,-0.85183 3.90727,0.60234 5.71428,0 2.02031,-0.67343 3.69398,-2.18371 5.71429,-2.85714 2.71052,-0.90351 5.79959,0.69296 8.57143,0 2.066,-0.5165 3.64828,-2.34064 5.71428,-2.85714 2.52062,-0.63016 8.98098,0.81586 11.42857,0 2.02031,-0.67344 3.69398,-2.18371 5.71429,-2.85715 1.80701,-0.60233 4.01061,0.85184 5.71428,0 13.07603,-6.53801 -12.12404,1.18421 8.57143,-5.71428 0.90351,-0.30117 2.18371,0.67343 2.85715,0 1.50584,-1.50585 1.35129,-4.20844 2.85714,-5.71429 1.34687,-1.34687 4.01061,0.85184 5.71428,0 1.20468,-0.60234 1.65247,-2.2548 2.85715,-2.85714 1.40115,-0.70057 9.07124,0.47147 11.42857,0 23.11212,-4.62242 0.77277,-1.86884 20,-5.71429 5.4945,-1.0989 11.64835,1.09891 17.14286,0 2.9532,-0.59064 5.64965,-2.1267 8.57142,-2.85714 3.57361,-0.8934 7.93058,1.166 11.42858,0 1.27775,-0.42592 1.57939,-2.43122 2.85714,-2.85714 2.30047,-0.76683 15.50242,0.82021 17.14286,0 1.20467,-0.60234 1.90476,-1.90476 2.85714,-2.85714 1.90476,0 4.01061,0.85183 5.71428,0 0.85184,-0.42592 -0.85183,-2.43123 0,-2.85715 1.70368,-0.85183 4.01062,0.85184 5.71429,0 0.85184,-0.42592 -0.67344,-2.18371 0,-2.85714 0.67344,-0.67344 1.90476,0 2.85714,0 2.85715,0 5.7996,0.69296 8.57143,0 6.22432,1.06792 0.95238,-4.76191 2.85714,-5.71429 1.79578,-0.89788 9.6328,0.89789 11.42858,0 1.20467,-0.60233 1.65246,-2.2548 2.85714,-2.85714 2.28571,-1.14286 6.28571,1.14286 8.57143,0 1.20467,-0.60234 1.65246,-2.2548 2.85714,-2.85714 1.79578,-0.89789 9.63279,0.89789 11.42857,0 1.20468,-0.60234 1.65247,-2.25481 2.85714,-2.85714 0.85184,-0.42592 2.00531,0.42591 2.85715,0 1.20467,-0.60234 1.65246,-2.25481 2.85714,-2.85715 1.70367,-0.85183 3.90727,0.60234 5.71429,0 2.0203,-0.67343 3.94236,-1.67586 5.71428,-2.85714 1.12067,-0.74711 1.53643,-2.593 2.85714,-2.85714 2.96758,-0.59352 20.6791,0 25.71429,0 2.85714,0 5.8609,0.9035 8.57143,0 1.27775,-0.42592 1.53643,-2.593 2.85714,-2.85715 3.73555,-0.74711 7.61905,0 11.42857,0 6.66667,0 13.33334,0 20,0 11.42857,0 22.85715,0 34.28572,0 4.7619,0 9.52381,0 14.28571,0 0.95238,0 1.95364,-0.30117 2.85714,0 2.02031,0.67344 3.69398,2.18371 5.71429,2.85715 0.90351,0.30117 1.95363,-0.30117 2.85714,0 2.02031,0.67343 3.64828,2.34064 5.71429,2.85714 2.55081,0.6377 10.97849,0 14.28571,0 0.95238,0 1.90476,0 2.85715,0 0.95238,0 2.0053,-0.42592 2.85714,0 1.20468,0.60234 1.57939,2.43122 2.85714,2.85714 1.80702,0.60234 3.80953,0 5.71429,0 1.90476,0.95238 3.69398,2.18371 5.71428,2.85715 3.03604,1.01201 8.39254,-1.01202 11.42857,0 2.02031,0.67343 3.69398,2.1837 5.71429,2.85714 0.90351,0.30117 1.95363,-0.30117 2.85714,0 2.02031,0.67343 3.69398,2.18371 5.71429,2.85714 8.74143,2.91381 -7.13032,-9.51545 11.42857,2.85714 0.79243,0.52829 -0.67344,2.18371 0,2.85715 1.34687,1.34687 4.01061,-0.85184 5.71429,0 1.20467,0.60234 1.65246,2.2548 2.85714,2.85714 0.85183,0.42592 1.90476,0 2.85714,0 0.95238,0.95238 1.65247,2.2548 2.85714,2.85714 0.85184,0.42592 1.90477,0 2.85715,0 0.95238,0 1.90476,0 2.85714,0 3.80952,0 7.61905,0 11.42857,0 2.85714,0 5.71429,0 8.57143,0 0.9524,0 2.0053,-0.42592 2.8571,0 1.2047,0.60234 1.6525,2.25481 2.8572,2.85715 1.6858,0.84288 6.6062,-0.65508 8.5714,0 2.0203,0.67343 3.694,2.1837 5.7143,2.85714 2.5355,0.84517 12.4148,-0.93545 14.2857,0 1.2047,0.60234 1.6525,2.2548 2.8572,2.85714 0.7512,0.37563 9.9345,0 11.4285,0 8.5715,0 17.1429,0 25.7143,0 11.4286,0 22.8572,0 34.2857,0 5.7143,0 11.4286,0 17.1429,0 0.9524,0 2.8571,-0.95238 2.8571,0 0,0.95238 -3.8095,0 -2.8571,0 1.9047,0 3.8095,0 5.7143,0"
       id="path2991"
       inkscape:connector-curvature="0" />
    <path
       style="fill:#00ff00"
       d="M 7,756.42141 7,623.9092 129.56137,621.79585 c 90.28485,-1.55679 126.58952,-1.22866 137.85714,1.24601 8.41268,1.84764 20.77852,4.572 27.47963,6.05412 6.70112,1.48213 15.30383,2.69477 19.11709,2.69477 3.81328,0 7.608,1.09176 8.43268,2.42613 1.9138,3.09663 43.58135,7.33234 65.98066,6.70727 106.4678,-2.97108 154.72703,-8.85672 176.99457,-21.58605 11.32429,-6.47357 23.04106,-9.04024 79.28243,-17.36758 15.23809,-2.25621 30.26069,-5.46965 33.3836,-7.14098 3.12292,-1.67133 8.33397,-3.03879 11.58014,-3.03879 3.24618,0 5.90212,-1.08111 5.90212,-2.40248 0,-1.32137 7.39286,-3.9938 16.42857,-5.93873 19.39226,-4.17417 35.1524,-9.07325 39.6716,-12.33201 5.52249,-3.9822 113.64054,-6.30674 130.3458,-2.80243 8.24043,1.72861 22.69689,4.54863 32.12546,6.26671 22.5164,4.10295 42.50228,9.22121 44.28571,11.3413 3.45077,4.10216 18.28074,8.72483 27.99157,8.72528 5.81892,2.7e-4 20.65726,1.92884 32.97406,4.28571 13.8738,2.65482 39.148,4.28523 66.4286,4.28523 l 44.0343,0 0,142.85714 0,142.85714 -561.42853,0 -561.42857,0 0,-132.5122 z"
       id="path2993"
       inkscape:connector-curvature="0" />
    <path
       sodipodi:type="arc"
       style="fill:#ffff00"
       id="path2995"
       sodipodi:cx="194.28572"
       sodipodi:cy="220.93361"
       sodipodi:rx="97.14286"
       sodipodi:ry="100"
       d="m 291.42858,220.93361 a 97.14286,100 0 1 1 -194.28572,0 97.14286,100 0 1 1 194.28572,0 z" />
    <path
       style="fill:#ffff00"
       id="path3003"
       d="m 334.51811,117.36621 c 7.4116,-2.78824 14.21789,-6.87916 21.72299,-9.46814 1.19276,-0.30297 2.42456,-0.48065 3.57828,-0.90891 0.97483,-0.36186 1.81989,-1.01051 2.76438,-1.44547 3.49003,-1.60724 7.08244,-2.11239 10.86701,-2.45046 1.50851,-1.07457 3.46146,-0.87508 5.07713,-1.61146 0.76281,-0.34767 1.32933,-1.02938 2.05283,-1.4528 2.27733,-1.332799 4.71595,-1.788742 7.27097,-2.244558 5.53116,-0.669158 11.11748,-0.600577 16.67919,-0.596719 0.95122,0.0035 1.91565,0.168575 2.85365,0.0105 1.54913,-0.261064 2.92797,-1.164226 4.45109,-1.549037 2.45348,-0.619863 4.95729,-0.807121 7.46949,-1.005548 28.53723,-15.994214 -49.3076,27.50937 -73.88158,41.40584 -0.72374,0.40927 1.62191,-0.46849 2.31597,-0.9263 1.88346,-1.24235 3.72399,-3.53893 5.25371,-5.20111 1.6763,-2.46034 0.93916,-1.16555 2.20609,-3.88738 0,0 81.59916,-38.746903 81.59916,-38.746903 l 0,0 c -0.65858,4.002504 -0.24386,2.018863 -1.24428,5.950896 -0.87126,2.249559 -1.12053,3.334575 -2.54823,5.299246 -0.5362,0.737865 -1.31996,1.277951 -1.8311,2.033391 -0.60372,0.89225 -0.55793,2.32356 -1.4865,2.86979 -77.22593,45.42802 -49.65761,43.73478 -82.7674,45.3068 -5.09467,1.00799 -10.04048,2.18095 -15.28305,1.66646 -5.19647,0.25607 -10.46248,0.60157 -15.33403,2.60264 -4.82808,2.13246 -9.58708,4.04193 -14.91435,4.55833 -5.35289,1.67462 -10.4391,4.11577 -15.75651,5.8795 -7.28405,3.41058 -14.59266,6.79124 -21.76425,10.42419 0,0 70.64934,-56.51279 70.64934,-56.51279 z"
       inkscape:connector-curvature="0" />
    <path
       style="fill:#ffff00"
       id="path3005"
       d="m 322.843,249.54957 c 8.12252,3.07489 16.41963,5.67195 24.65562,8.43634 8.46093,2.8525 16.55173,6.54384 24.83258,9.84414 6.12898,2.67556 12.72849,3.97778 18.98622,6.20981 4.64698,1.28116 9.11835,3.00618 13.72309,4.41338 3.97081,1.70722 7.70692,3.91034 11.7285,5.48652 5.61182,2.78955 11.68208,4.58856 17.07607,7.78974 2.56492,1.44911 4.98788,3.10093 7.53395,4.58222 0,0 -18.92793,12.26193 -18.92793,12.26193 l 0,0 c -2.50769,-1.51129 -4.95577,-3.11415 -7.50037,-4.56354 -5.42683,-2.98195 -11.38262,-4.91166 -17.00181,-7.50391 -3.89511,-1.72442 -7.64166,-3.76797 -11.6119,-5.33295 -4.56024,-1.53417 -9.1222,-3.00215 -13.70291,-4.472 -6.34773,-2.03965 -12.78124,-3.79525 -18.94399,-6.3991 -8.18075,-3.39937 -16.29977,-6.90249 -24.69746,-9.7567 -8.30539,-2.72613 -16.58488,-5.5255 -24.87736,-8.28932 0,0 18.7277,-12.70656 18.7277,-12.70656 z"
       inkscape:connector-curvature="0" />
    <path
       style="fill:#ffff00"
       id="path3007"
       d="m 275.78594,323.90848 c -0.20092,9.46298 -0.13064,18.92909 -0.0902,28.39336 0.0339,6.72427 0.0537,13.44858 0.0634,20.17292 0.68925,4.92189 1.76442,9.75998 2.30318,14.70858 1.24676,4.69544 2.30304,9.39063 2.86562,14.2204 0.52009,5.55866 0.53824,11.14746 0.56954,16.72541 0.0132,4.76695 0.001,9.53394 -0.006,14.30089 0,0 -20.10116,10.23842 -20.10116,10.23842 l 0,0 c 0.007,-4.76245 0.0183,-9.5249 0.0103,-14.28735 -0.0228,-5.50211 -0.0276,-11.01334 -0.48375,-16.50053 -0.51292,-4.84326 -1.51917,-9.55484 -2.87245,-14.23389 -0.50354,-5.03409 -1.54956,-9.9519 -2.37551,-14.9357 0.01,-6.74589 0.0296,-13.49175 0.0634,-20.23756 0.0401,-9.43361 0.1119,-18.86913 -0.0902,-28.30142 0,0 20.14331,-10.26353 20.14331,-10.26353 z"
       inkscape:connector-curvature="0" />
    <path
       style="fill:#ffff00"
       id="path3009"
       d="m 140.08374,348.51012 c -1.1818,0.43181 -2.37946,0.82247 -3.54541,1.29542 -2.81997,1.14387 -5.63594,2.30545 -8.38614,3.60819 -1.29417,0.61303 -5.02974,2.73964 -3.79001,2.02286 20.13476,-11.64151 20.06317,-11.67985 12.13096,-6.63989 -6.79152,4.94054 -12.39343,11.30614 -18.1096,17.41219 -5.31914,5.42501 -9.70474,11.58323 -13.74124,17.98828 -3.47868,4.81523 -7.227525,9.3686 -9.584816,14.85813 -2.076607,5.3591 -4.690918,10.49206 -7.916797,15.24743 -2.662506,4.289 -5.646356,8.21022 -9.101461,11.89214 -0.655751,0.75005 -1.311502,1.50011 -1.967253,2.25016 0,0 -20.748106,8.81212 -20.748106,8.81212 l 0,0 c 0.634937,-0.79462 1.269874,-1.58924 1.904811,-2.38386 3.481892,-3.59474 6.783466,-7.19338 9.164389,-11.62378 3.581725,-4.35617 6.013351,-9.53404 8.189401,-14.70778 2.062835,-5.76438 5.557218,-10.60623 9.480956,-15.27526 4.069123,-6.48424 8.257355,-12.87608 13.596798,-18.41913 5.900088,-6.04283 11.358288,-12.58975 17.948188,-17.91604 13.36533,-8.74187 27.14525,-17.19329 42.38031,-22.20715 0,0 -17.90498,13.78597 -17.90498,13.78597 z"
       inkscape:connector-curvature="0" />
    <path
       style="fill:#ffff00"
       id="path3011"
       d="m 88.791536,263.80108 c -6.527485,4.68819 -12.761301,9.75346 -18.825506,15.0204 -4.632053,3.64053 -9.089432,7.32961 -13.006776,11.74093 -3.204249,3.43335 -6.403098,6.87712 -9.622272,10.29966 -3.949129,3.38936 -6.978841,7.61208 -10.064143,11.75844 -2.683411,3.55056 -5.654731,6.86012 -8.709765,10.09057 -0.482614,0.49972 -0.965229,0.99944 -1.447843,1.49916 0,0 -20.9445589,8.60523 -20.9445589,8.60523 l 0,0 c 0.5096326,-0.43719 1.0192651,-0.87438 1.5288977,-1.31157 2.8208532,-3.40885 6.1399492,-6.37463 8.8487162,-9.89599 2.938803,-4.27793 6.022749,-8.60772 9.884735,-12.10128 3.448908,-3.16357 6.207902,-6.97984 9.72231,-10.09408 3.676735,-4.77784 8.188956,-8.5464 12.988689,-12.15586 6.105089,-5.14001 12.062123,-10.50036 18.646809,-15.02786 0,0 21.000707,-8.42775 21.000707,-8.42775 z"
       inkscape:connector-curvature="0" />
    <path
       style="fill:#ffff00"
       id="path3013"
       d="m 62.571278,195.20579 c -10.201512,-3.06883 -20.076127,-6.97011 -29.881374,-11.11459 -9.220784,-3.66016 -17.632337,-8.95 -26.5698739,-13.17091 -0.9869784,-0.56115 -1.9739567,-1.1223 -2.9609351,-1.68346 0,0 18.867002,-12.27604 18.867002,-12.27604 l 0,0 c 0.946739,0.53266 1.893479,1.06532 2.840219,1.59798 8.764073,4.40425 17.159819,9.53604 26.297051,13.19829 9.835752,4.0723 19.742755,7.95208 30.052095,10.68018 0,0 -18.644184,12.76855 -18.644184,12.76855 z"
       inkscape:connector-curvature="0" />
    <path
       style="fill:#ffff00"
       id="path3015"
       d="M 109.1472,127.3358 C 104.822,119.29309 99.804309,111.63732 94.957808,103.90085 89.585984,95.690736 84.71667,87.186168 79.646119,78.796842 76.316627,73.06031 73.527313,67.017049 70.803928,60.972962 67.851207,56.461876 66.066348,51.410448 64.25654,46.373331 c 0,0 19.747476,-10.933426 19.747476,-10.933426 l 0,0 c 1.782335,4.986554 3.559768,9.974599 6.433619,14.463986 2.663483,5.979702 5.432067,11.935616 8.594724,17.667436 4.944171,8.455924 9.876741,16.886894 15.262671,25.078885 4.84532,7.825868 9.82438,15.570288 14.50719,23.494328 0,0 -19.65502,11.19126 -19.65502,11.19126 z"
       inkscape:connector-curvature="0" />
    <path
       style="fill:#ffff00"
       id="path3017"
       d="m 198.49977,103.67303 c -0.20158,-8.086232 0.29067,-16.08186 1.292,-24.098753 0.86987,-6.226519 1.27286,-12.497583 1.47948,-18.776458 -0.10691,-5.146934 1.3532,-10.122557 2.11071,-15.176059 0.69668,-5.374648 0.77351,-10.801684 0.84399,-16.212832 0.006,-0.944693 0.013,-1.889386 0.0195,-2.834079 0,0 20.10748,-10.231074 20.10748,-10.231074 l 0,0 c -0.004,0.9481 -0.008,1.896199 -0.0124,2.844299 -0.0501,5.489611 -0.0987,10.991556 -0.68743,16.455682 -0.64677,5.022765 -2.16843,9.914021 -2.25601,14.977825 -0.18484,6.357072 -0.54787,12.710941 -1.45829,19.011574 -1.05785,7.907304 -1.85198,15.780801 -1.29572,23.776346 0,0 -20.14332,10.263529 -20.14332,10.263529 z"
       inkscape:connector-curvature="0" />
    <rect
       style="fill:#ff0000"
       id="rect3023"
       width="277.14285"
       height="242.85715"
       x="697.14288"
       y="512.36218" />
    <path
       sodipodi:type="star"
       style="fill:#ff0000"
       id="path3035"
       sodipodi:sides="3"
       sodipodi:cx="794.28571"
       sodipodi:cy="355.21933"
       sodipodi:r1="155.96965"
       sodipodi:r2="77.984825"
       sodipodi:arg1="0.49642275"
       sodipodi:arg2="1.5436203"
       inkscape:flatsided="false"
       inkscape:rounded="0"
       inkscape:randomized="0"
       d="m 931.42857,429.50505 -135.02381,3.67031 -135.0238,3.67031 64.33332,-118.7692 64.33331,-118.7692 70.69049,115.09889 z"
       inkscape:transform-center-x="-2.1190564"
       inkscape:transform-center-y="-37.142857"
       transform="translate(40,82.857143)" />
    <rect
       style="fill:#784421"
       id="rect3041"
       width="60"
       height="125.71429"
       x="865.71429"
       y="623.79077" />
    <rect
       style="fill:#784421"
       id="rect3043"
       width="82.85714"
       height="40"
       x="737.14288"
       y="640.93359" />
    <rect
       style="fill:#784421"
       id="rect3045"
       width="11.428572"
       height="68.571426"
       x="697.14288"
       y="443.79074" />
    <rect
       style="fill:#784421"
       id="rect3047"
       width="280"
       height="2.8571429"
       x="700"
       y="512.36218" />
  </g>
</svg>
